<svg xmlns="http://www.w3.org/2000/svg" xmlns:xlink="http://www.w3.org/1999/xlink" width="160" zoomAndPan="magnify" viewBox="0 0 120 37.5" height="50" preserveAspectRatio="xMidYMid meet" version="1.0"><defs><clipPath id="dd7031442b"><path d="M 0.789062 3 L 119.210938 3 L 119.210938 34 L 0.789062 34 Z M 0.789062 3 " clip-rule="nonzero"/></clipPath></defs><g clip-path="url(#dd7031442b)"><path stroke-linecap="butt" transform="matrix(0.353151, 0, 0, 0.353151, -16.200582, 6.143007)" fill="none" stroke-linejoin="miter" d="M 75.938553 63.860249 C 76.723894 63.860249 77.995924 63.782821 79.168404 63.705393 C 80.108601 63.639026 81.048797 63.48417 81.933688 63.38462 C 83.659225 63.229764 85.063989 62.621402 86.247531 61.349371 C 88.76947 58.761066 90.096806 55.608642 90.417579 52.069079 C 90.572435 50.885537 90.727291 49.713057 90.804719 48.518454 C 90.970636 45.620437 90.882146 42.700297 89.94195 39.879708 C 89.322526 37.977193 88.28278 36.329084 86.966505 34.924319 C 86.712099 34.592485 86.479815 34.448691 86.170103 34.216407 C 85.694474 33.807145 85.617046 33.807145 86.092675 33.431066 C 86.170103 33.353638 86.324959 33.198782 86.479815 33.121354 C 87.751845 32.479809 88.537186 31.373695 89.156609 30.123787 C 89.787094 28.553106 90.262723 26.893935 90.340151 25.168398 C 90.417579 24.228202 90.417579 23.288005 90.495007 22.248259 C 90.572435 19.958604 90.096806 17.702132 89.399954 15.489905 C 88.76947 13.919224 88.061557 12.337482 86.966505 10.921656 C 86.247531 9.904032 85.539618 8.886407 84.345016 8.167434 C 83.404819 7.536949 82.309767 7.149809 81.148348 6.928586 C 80.58423 6.829036 80.031173 6.751608 79.566605 6.67418 C 77.995924 6.287041 76.336754 6.364469 74.766073 6.364469 C 73.117964 6.364469 71.536221 6.441896 69.888112 6.519324 C 69.412483 6.596752 69.025344 6.67418 68.627143 6.67418 C 68.162575 6.751608 67.753313 6.829036 67.377234 6.829036 C 66.182632 6.751608 64.932724 6.751608 63.749182 6.67418 C 63.284614 6.67418 62.797924 6.596752 62.344418 6.596752 C 60.994959 6.67418 59.73399 6.829036 58.56151 7.614377 C 57.997392 7.946211 57.776169 8.399717 57.776169 9.041263 C 57.853597 9.362036 57.853597 9.59432 57.776169 9.904032 C 57.621313 12.02777 57.698741 14.140447 57.853597 16.197818 C 57.997392 17.138014 57.997392 18.000783 57.919964 18.940979 C 57.853597 20.290438 57.776169 21.706263 57.853597 23.111027 C 57.919964 26.584224 58.07482 30.123787 58.17437 33.574861 C 58.251798 38.685105 58.329226 43.817472 58.329226 48.927716 C 58.329226 51.825734 58.251798 54.745873 58.07482 57.743441 C 57.997392 59.137144 58.251798 60.641458 58.329226 62.057284 C 58.406654 62.920052 58.948649 63.48417 59.899907 63.48417 C 60.994959 63.48417 62.090012 63.561598 63.207186 63.38462 C 64.689379 63.229764 66.182632 63.38462 67.675885 63.561598 C 70.275252 63.782821 72.863557 63.782821 75.938553 63.860249 Z M 70.430108 44.348406 C 70.35268 43.032131 70.35268 41.605245 70.275252 40.266848 C 70.275252 39.625302 70.275252 39.625302 70.905736 39.547874 C 72.255195 39.547874 73.648898 39.470446 75.075784 39.470446 C 75.938553 39.470446 76.801321 39.625302 77.66409 39.879708 C 78.526859 40.18942 79.090976 40.819904 79.489177 41.527817 C 80.739086 43.640494 81.148348 45.930149 80.893941 48.286171 C 80.816514 49.635629 80.031173 50.730681 78.781265 51.516022 C 76.956177 52.688502 74.998356 53.086703 72.963108 53.164131 C 72.410051 53.241559 71.845933 53.241559 71.215448 53.241559 C 70.828309 53.164131 70.750881 53.164131 70.750881 52.688502 C 70.673453 49.945341 70.518597 47.191118 70.430108 44.425834 Z M 69.810684 23.597717 C 69.733256 22.093403 69.733256 20.677577 69.733256 19.195385 C 69.733256 18.863551 69.733256 18.719756 70.120396 18.642329 C 71.215448 18.564901 72.332623 18.410045 73.505103 18.310494 C 74.522728 18.233067 75.551413 18.310494 76.569038 18.863551 C 77.210583 19.195385 77.741518 19.659953 78.073352 20.290438 C 79.013549 22.093403 79.489177 23.973796 79.489177 25.953739 C 79.489177 26.340879 79.400688 26.739079 79.168404 26.971363 C 78.526859 27.756704 77.741518 28.39825 76.723894 28.475678 C 75.551413 28.553106 74.290444 28.619472 73.117964 28.6969 C 72.332623 28.774328 71.536221 28.851756 70.750881 29.028734 C 69.96554 29.106162 69.96554 29.028734 69.888112 28.243394 C 69.888112 26.816507 69.888112 25.323254 69.810684 23.896368 Z M 97.894906 36.495001 C 97.817478 38.309027 97.74005 41.295533 97.6405 44.270979 C 97.563072 47.578258 97.485644 50.808109 97.408216 54.104328 C 97.330788 56.393983 97.330788 58.761066 97.264421 61.117087 C 97.186993 61.979856 97.6405 62.621402 98.049762 63.229764 C 98.12719 63.38462 98.348413 63.561598 98.602819 63.639026 C 99.388159 63.782821 100.162439 64.092533 100.870351 64.092533 C 102.441033 64.169961 104.022775 64.169961 105.516028 64.092533 C 107.009281 64.015105 108.513596 63.860249 109.995788 63.782821 C 112.042098 63.782821 114.254325 63.782821 116.289574 63.705393 C 117.71646 63.639026 119.054858 63.48417 120.382194 63.48417 C 123.047927 63.38462 125.658355 63.38462 128.33515 63.307192 C 128.711229 63.307192 129.120491 63.307192 129.352774 62.99748 C 129.905831 62.366996 130.292971 61.736511 130.292971 60.873742 C 130.370399 59.059716 130.060687 57.256751 129.983259 55.453786 C 129.983259 54.823301 129.983259 54.0269 129.275346 53.551271 C 129.275346 53.551271 129.275346 53.473843 129.197918 53.396415 C 128.788656 52.688502 128.003316 52.301363 127.240098 52.456219 C 126.908264 52.456219 126.598552 52.533646 126.277779 52.456219 C 125.337582 52.456219 124.319958 52.378791 123.379761 52.378791 C 121.875447 52.456219 120.382194 52.611074 118.877879 52.611074 C 116.212146 52.688502 113.546412 52.688502 110.947046 52.688502 C 110.239133 52.788053 110.239133 52.688502 110.239133 52.069079 L 110.239133 47.191118 C 110.161705 44.270979 110.161705 41.450389 110.161705 38.607677 C 110.161705 37.590053 110.239133 37.590053 111.256757 37.590053 C 113.059722 37.435197 114.873749 37.357769 116.698836 37.213974 C 118.346945 37.114424 119.917626 36.88214 121.576796 36.727284 L 123.833268 36.727284 C 124.474814 36.649856 124.873015 36.329084 124.873015 35.632232 C 124.873015 33.807145 124.873015 32.081608 124.795587 30.356071 C 124.795587 29.57073 124.707098 28.774328 124.62967 27.988988 C 124.552242 27.458053 124.552242 27.458053 124.010246 27.458053 L 122.439565 27.458053 C 120.304766 27.458053 118.092539 27.380625 115.902434 27.458053 C 114.176897 27.458053 112.429238 27.535481 110.626273 27.535481 C 110.084277 27.535481 109.995788 27.535481 109.995788 26.893935 C 110.084277 24.692769 110.161705 22.502665 110.161705 20.21301 C 110.239133 19.737381 110.239133 19.737381 110.703701 19.659953 C 112.528788 19.427669 114.409181 19.350241 116.212146 19.272813 C 118.424373 19.272813 120.53705 19.272813 122.738216 19.195385 C 124.319958 19.095835 125.968067 19.018407 127.538748 18.940979 C 128.180294 18.863551 128.788656 18.797184 129.197918 18.233067 C 129.50763 17.77956 129.750975 17.215442 129.651425 16.662385 L 129.430202 9.362036 C 129.352774 8.023639 128.633801 7.072381 127.240098 7.006014 C 126.985691 7.006014 126.67598 7.006014 126.521124 7.072381 C 125.735783 7.227237 125.027871 7.149809 124.319958 7.149809 C 122.815644 7.149809 121.32239 7.072381 119.917626 7.072381 C 118.955307 7.072381 118.092539 7.006014 117.22977 7.006014 C 113.933552 7.006014 110.548845 7.072381 107.241565 7.072381 C 107.009281 7.072381 106.788059 7.149809 106.456225 7.149809 L 99.852727 7.149809 C 98.757675 7.304665 98.204618 7.868783 98.204618 8.963835 C 98.12719 9.262486 98.204618 9.516892 98.204618 9.749176 C 98.204618 10.844228 98.282046 11.950342 98.282046 13.045394 C 98.12719 20.445294 98.049762 27.834132 97.894906 36.495001 Z M 154.682774 37.744909 L 154.760202 37.744909 C 154.760202 37.512625 154.760202 37.280341 154.83763 37.036996 C 154.992486 33.27621 155.147341 29.493302 155.213708 25.632966 C 155.313258 23.365433 155.213708 20.99835 155.213708 18.642329 L 155.213708 18.000783 C 155.213708 17.702132 155.313258 17.624704 155.62297 17.624704 L 156.895001 17.624704 C 158.996616 17.547276 161.208843 17.29287 163.398948 17.547276 L 163.874577 17.547276 C 164.516123 17.447726 164.748407 17.138014 164.825835 16.507529 L 164.825835 14.936848 C 164.903263 12.746743 165.146608 10.611944 165.047057 8.477145 C 165.047057 7.614377 164.825835 7.459521 164.029433 7.459521 C 162.63573 7.459521 161.208843 7.536949 159.793018 7.536949 C 153.897433 7.614377 148.079276 7.614377 142.183691 7.227237 C 140.281176 7.149809 138.323355 7.227237 136.431901 7.304665 C 135.801416 7.382093 135.480643 7.614377 135.403215 8.322289 C 135.170931 10.611944 135.093503 12.901599 135.093503 15.180193 C 135.093503 15.888106 135.170931 16.507529 135.248359 17.138014 C 135.325787 17.547276 135.558071 17.77956 135.878844 17.77956 L 136.586757 17.77956 C 139.263551 17.547276 141.929285 17.624704 144.517591 17.624704 C 145.004281 17.624704 145.004281 17.624704 145.004281 18.078211 C 145.081708 19.095835 145.081708 20.135582 145.081708 21.230634 C 145.081708 23.896368 145.081708 26.584224 144.926853 29.338446 C 144.694569 33.27621 144.517591 37.213974 144.517591 41.052188 C 144.440163 45.366031 144.617141 49.635629 144.617141 53.883105 L 144.617141 61.902428 C 144.617141 62.842624 145.159136 63.38462 146.099333 63.561598 C 146.497534 63.639026 146.962101 63.639026 147.43773 63.705393 C 149.472979 64.015105 151.452922 63.860249 153.410743 63.48417 C 153.897433 63.307192 154.273512 62.99748 154.273512 62.444424 C 154.35094 59.922485 154.527918 57.411607 154.527918 54.900729 C 154.605346 49.148939 154.682774 43.485638 154.682774 37.744909 Z M 181.417537 38.375394 C 181.340109 38.375394 181.262681 38.375394 181.262681 38.309027 C 181.196315 38.154171 181.196315 37.899765 181.196315 37.744909 C 181.196315 34.061551 181.196315 30.433499 181.118887 26.739079 C 181.118887 20.600149 181.019336 14.472281 180.941908 8.322289 C 180.941908 7.149809 180.156568 6.287041 179.061516 6.287041 C 178.043891 6.287041 177.103695 6.441896 176.063948 6.441896 C 175.444524 6.519324 174.81404 6.519324 174.183555 6.519324 L 172.303162 6.519324 C 171.739044 6.441896 171.285538 6.596752 170.72142 6.751608 C 170.168363 7.006014 169.858651 7.382093 169.858651 8.090006 C 169.858651 8.808979 169.858651 9.59432 169.936079 10.302233 L 170.168363 22.580093 C 170.168363 26.186023 170.245791 29.891503 170.168363 33.574861 C 170.168363 38.452821 170.090935 43.40821 169.936079 48.363599 C 169.858651 52.146507 170.013507 55.840926 170.422769 59.623834 C 170.489136 60.331747 170.643992 61.039659 170.876276 61.659083 C 171.031131 62.134712 171.285538 62.621402 171.739044 62.765196 C 172.535446 63.074908 173.320786 63.48417 174.183555 63.38462 C 174.581756 63.38462 174.968896 63.48417 175.367096 63.48417 C 176.849288 63.561598 178.353603 63.639026 179.846856 63.639026 C 180.477341 63.639026 180.941908 63.38462 181.262681 62.765196 C 181.572393 62.057284 181.981655 61.349371 182.213939 60.641458 C 182.921852 58.90486 183.629764 57.179323 184.249188 55.453786 C 184.957101 53.650821 185.819869 51.903162 186.760066 50.166564 C 187.799812 48.053887 188.817437 45.930149 189.912489 43.817472 C 189.989917 43.640494 190.155834 43.40821 190.31069 43.175926 C 190.465546 43.563066 190.620402 43.817472 190.775258 44.127184 C 191.96986 46.483206 193.131279 48.850288 194.40331 51.20631 C 195.498362 53.318987 196.283703 55.608642 197.146471 57.809808 L 199.28127 62.765196 C 199.513554 63.38462 200.066611 63.639026 200.608607 63.639026 C 200.851952 63.705393 201.084236 63.705393 201.316519 63.705393 C 204.159231 63.639026 206.979821 63.38462 209.745104 62.99748 C 210.441956 62.920052 210.685301 62.621402 210.685301 61.902428 C 210.762729 61.736511 210.685301 61.581655 210.685301 61.349371 C 210.762729 57.101895 210.519384 52.865481 210.840157 48.595882 C 210.995013 46.250922 210.995013 43.8949 210.995013 41.450389 C 210.995013 38.607677 210.917585 35.787088 210.840157 32.944376 C 210.840157 28.475678 210.917585 24.051224 211.07244 19.659953 C 211.227296 15.965534 211.227296 12.182626 211.304724 8.477145 C 211.304724 8.023639 211.149868 7.536949 210.995013 7.149809 C 210.840157 6.67418 210.519384 6.441896 209.977388 6.441896 C 208.782786 6.519324 207.543938 6.519324 206.349336 6.519324 L 204.546371 6.519324 C 203.683602 6.441896 202.887201 6.364469 202.024432 6.287041 C 201.648353 6.287041 201.316519 6.287041 201.006808 6.364469 C 200.221467 6.441896 199.513554 6.829036 199.590982 7.791355 C 199.590982 8.322289 199.590982 8.886407 199.513554 9.439464 C 199.513554 15.799617 199.436126 22.248259 199.358698 28.6969 L 199.358698 38.375394 C 199.126415 38.231599 198.949436 38.076743 198.949436 37.899765 C 198.728214 37.280341 198.49593 36.727284 198.241524 36.0968 C 197.633161 34.592485 197.069043 33.198782 196.438559 31.771896 C 195.973991 30.676844 195.420934 29.57073 194.867878 28.475678 C 194.171026 26.971363 193.463113 25.555538 192.755201 24.051224 C 192.345939 23.288005 191.96986 22.502665 191.328314 21.706263 C 190.852686 21.075778 189.680205 21.075778 189.127148 21.783691 C 188.662581 22.403114 188.253319 23.111027 187.87724 23.896368 C 186.60521 26.418306 185.432729 29.028734 184.17176 31.539612 C 183.308991 33.27621 182.667446 35.001747 182.059083 36.804712 C 181.804677 37.357769 181.649821 37.822337 181.417537 38.375394 Z M 218.317484 36.495001 C 218.240056 38.309027 218.162628 41.295533 218.063078 44.270979 C 217.98565 47.578258 217.908222 50.808109 217.830794 54.104328 C 217.753366 56.393983 217.753366 58.761066 217.686999 61.117087 C 217.609571 61.979856 218.063078 62.621402 218.47234 63.229764 C 218.549768 63.38462 218.770991 63.561598 219.025397 63.639026 C 219.810737 63.782821 220.585017 64.092533 221.292929 64.092533 C 222.863611 64.169961 224.445353 64.169961 225.938606 64.092533 C 227.44292 64.015105 228.936174 63.860249 230.418366 63.782821 C 232.464676 63.782821 234.676903 63.782821 236.712152 63.705393 C 238.139038 63.639026 239.477435 63.48417 240.804772 63.48417 C 243.470505 63.38462 246.080933 63.38462 248.757728 63.307192 C 249.133806 63.307192 249.543068 63.307192 249.775352 62.99748 C 250.328409 62.366996 250.715549 61.736511 250.715549 60.873742 C 250.792977 59.059716 250.483265 57.256751 250.405837 55.453786 C 250.405837 54.823301 250.405837 54.0269 249.697924 53.551271 C 249.697924 53.551271 249.697924 53.473843 249.620496 53.396415 C 249.211234 52.688502 248.425894 52.301363 247.662675 52.456219 C 247.330841 52.456219 247.02113 52.533646 246.700357 52.456219 C 245.76016 52.456219 244.742536 52.378791 243.802339 52.378791 C 242.298025 52.456219 240.804772 52.611074 239.300457 52.611074 C 236.634724 52.688502 233.96899 52.688502 231.369623 52.688502 C 230.661711 52.788053 230.661711 52.688502 230.661711 52.069079 L 230.661711 47.191118 C 230.584283 44.270979 230.584283 41.450389 230.584283 38.607677 C 230.584283 37.590053 230.661711 37.590053 231.679335 37.590053 C 233.4823 37.435197 235.296326 37.357769 237.121414 37.213974 C 238.769523 37.114424 240.340204 36.88214 241.999374 36.727284 L 244.255846 36.727284 C 244.897392 36.649856 245.295593 36.329084 245.295593 35.632232 C 245.295593 33.807145 245.295593 32.081608 245.218165 30.356071 C 245.218165 29.57073 245.129675 28.774328 245.052248 27.988988 C 244.97482 27.458053 244.97482 27.458053 244.432824 27.458053 L 242.862143 27.458053 C 240.727344 27.458053 238.515117 27.380625 236.325012 27.458053 C 234.599475 27.458053 232.851816 27.535481 231.04885 27.535481 C 230.506855 27.535481 230.418366 27.535481 230.418366 26.893935 C 230.506855 24.692769 230.584283 22.502665 230.584283 20.21301 C 230.661711 19.737381 230.661711 19.737381 231.126278 19.659953 C 232.951366 19.427669 234.831759 19.350241 236.634724 19.272813 C 238.846951 19.272813 240.959628 19.272813 243.160793 19.195385 C 244.742536 19.095835 246.390645 19.018407 247.961326 18.940979 C 248.602872 18.863551 249.211234 18.797184 249.620496 18.233067 C 249.930208 17.77956 250.173553 17.215442 250.074003 16.662385 L 249.85278 9.362036 C 249.775352 8.023639 249.056378 7.072381 247.662675 7.006014 C 247.408269 7.006014 247.098558 7.006014 246.943702 7.072381 C 246.158361 7.227237 245.450448 7.149809 244.742536 7.149809 C 243.238221 7.149809 241.744968 7.072381 240.340204 7.072381 C 239.377885 7.072381 238.515117 7.006014 237.652348 7.006014 C 234.35613 7.006014 230.971423 7.072381 227.664143 7.072381 C 227.44292 7.072381 227.210637 7.149809 226.878803 7.149809 L 220.275305 7.149809 C 219.180253 7.304665 218.627196 7.868783 218.627196 8.963835 C 218.549768 9.262486 218.627196 9.516892 218.627196 9.749176 C 218.627196 10.844228 218.704624 11.950342 218.704624 13.045394 C 218.549768 20.445294 218.47234 27.834132 218.317484 36.495001 Z M 257.805736 36.495001 C 257.728308 38.309027 257.65088 41.295533 257.55133 44.270979 C 257.473902 47.578258 257.396474 50.808109 257.319046 54.104328 C 257.241618 56.393983 257.241618 58.761066 257.16419 61.117087 C 257.086763 61.979856 257.55133 62.621402 257.949531 63.229764 C 258.026959 63.38462 258.259243 63.561598 258.513649 63.639026 C 259.29899 63.782821 260.062208 64.092533 260.781182 64.092533 C 262.351863 64.169961 263.922544 64.169961 265.426858 64.092533 C 266.920112 64.015105 268.424426 63.860249 269.895557 63.782821 C 271.952928 63.782821 274.165155 63.782821 276.200404 63.705393 C 277.616229 63.639026 278.965688 63.48417 280.293024 63.48417 C 282.958758 63.38462 285.569185 63.38462 288.234919 63.307192 C 288.622059 63.307192 289.031321 63.307192 289.252543 62.99748 C 289.816661 62.366996 290.19274 61.736511 290.19274 60.873742 C 290.270168 59.059716 289.971517 57.256751 289.894089 55.453786 C 289.894089 54.823301 289.894089 54.0269 289.175115 53.551271 C 289.175115 53.551271 289.175115 53.473843 289.108749 53.396415 C 288.699487 52.688502 287.914146 52.301363 287.139867 52.456219 C 286.819094 52.456219 286.509382 52.533646 286.188609 52.456219 C 285.248412 52.456219 284.230788 52.378791 283.27953 52.378791 C 281.786277 52.456219 280.293024 52.611074 278.78871 52.611074 C 276.122976 52.688502 273.457242 52.688502 270.857876 52.688502 C 270.149963 52.788053 270.149963 52.688502 270.149963 52.069079 L 270.149963 47.191118 C 270.072535 44.270979 270.072535 41.450389 270.072535 38.607677 C 270.072535 37.590053 270.149963 37.590053 271.167588 37.590053 C 272.970553 37.435197 274.773518 37.357769 276.598605 37.213974 C 278.257775 37.114424 279.828456 36.88214 281.476565 36.727284 L 283.744098 36.727284 C 284.374583 36.649856 284.783845 36.329084 284.783845 35.632232 C 284.783845 33.807145 284.783845 32.081608 284.706417 30.356071 C 284.706417 29.57073 284.606867 28.774328 284.529439 27.988988 C 284.452011 27.458053 284.452011 27.458053 283.921076 27.458053 L 282.339334 27.458053 C 280.215596 27.458053 278.003369 27.380625 275.813264 27.458053 C 274.087727 27.458053 272.340068 27.535481 270.537103 27.535481 C 269.995107 27.535481 269.895557 27.535481 269.895557 26.893935 C 269.995107 24.692769 270.072535 22.502665 270.072535 20.21301 C 270.149963 19.737381 270.149963 19.737381 270.614531 19.659953 C 272.439618 19.427669 274.320011 19.350241 276.122976 19.272813 C 278.335203 19.272813 280.44788 19.272813 282.649046 19.195385 C 284.230788 19.095835 285.878897 19.018407 287.449578 18.940979 C 288.091124 18.863551 288.699487 18.797184 289.108749 18.233067 C 289.407399 17.77956 289.661805 17.215442 289.562255 16.662385 L 289.329971 9.362036 C 289.252543 8.023639 288.544631 7.072381 287.139867 7.006014 C 286.896522 7.006014 286.58681 7.006014 286.431954 7.072381 C 285.646613 7.227237 284.938701 7.149809 284.230788 7.149809 C 282.726474 7.149809 281.23322 7.072381 279.828456 7.072381 C 278.866138 7.072381 278.003369 7.006014 277.1406 7.006014 C 273.833321 7.006014 270.459675 7.072381 267.152395 7.072381 C 266.920112 7.072381 266.687828 7.149809 266.367055 7.149809 L 259.763557 7.149809 C 258.668505 7.304665 258.104387 7.868783 258.104387 8.963835 C 258.026959 9.262486 258.104387 9.516892 258.104387 9.749176 C 258.104387 10.844228 258.181815 11.950342 258.181815 13.045394 C 258.026959 20.445294 257.949531 27.834132 257.805736 36.495001 Z M 306.961421 34.592485 C 307.038849 34.592485 307.038849 34.515057 307.116277 34.515057 C 307.116277 34.592485 307.193705 34.592485 307.193705 34.669913 C 307.824189 36.329084 308.919242 37.744909 309.793071 39.249223 C 310.95449 41.372961 312.226521 43.40821 313.476429 45.543009 C 314.438748 47.036262 315.301517 48.441026 316.241713 49.867913 C 317.259337 51.438594 318.35439 52.865481 319.13973 54.436162 C 319.615359 55.453786 320.102049 56.393983 320.566617 57.334179 C 321.584241 58.982288 322.690355 60.641458 323.707979 62.366996 C 323.940263 62.687768 324.272097 62.99748 324.49332 63.307192 C 324.725604 63.48417 325.057438 63.561598 325.212294 63.561598 C 326.229918 63.561598 327.247542 63.48417 328.276228 63.48417 C 329.050507 63.38462 329.935398 63.229764 330.798167 63.307192 C 331.660935 63.307192 332.280359 62.99748 332.910844 62.289568 C 333.143127 61.979856 333.309045 61.736511 333.309045 61.271943 C 333.231617 59.77869 333.231617 58.196948 333.231617 56.703694 C 333.0657 53.473843 332.910844 50.343542 332.910844 47.11369 C 332.833416 41.992385 332.910844 36.804712 332.833416 31.694468 C 332.833416 27.203647 332.755988 22.723887 332.601132 18.310494 C 332.523704 15.014276 332.125503 11.706997 332.202931 8.399717 C 332.202931 8.023639 331.970647 7.713927 331.660935 7.536949 C 331.483957 7.459521 331.340162 7.382093 331.107879 7.382093 C 330.543761 7.149809 329.835848 7.227237 329.227486 7.227237 C 327.878027 7.149809 326.462202 7.072381 325.134866 7.006014 C 324.426953 7.006014 323.785407 7.072381 323.154922 7.304665 C 322.612927 7.536949 322.292154 7.791355 322.292154 8.399717 C 322.292154 10.689372 322.292154 12.967966 322.369582 15.180193 C 322.44701 17.77956 322.767783 20.367866 322.767783 22.956171 C 322.845211 28.39825 322.845211 33.807145 322.845211 39.171795 C 322.845211 39.326651 322.767783 39.470446 322.767783 39.625302 C 322.612927 39.547874 322.535499 39.470446 322.535499 39.393018 C 321.429385 37.435197 320.256905 35.466315 319.217158 33.497433 C 318.531368 32.336014 317.96725 31.141411 317.336765 29.968931 C 315.378945 26.340879 313.399001 22.723887 311.673464 19.018407 C 310.578412 16.761936 309.306381 14.472281 308.366185 12.02777 C 307.901617 10.7668 307.193705 9.59432 306.640648 8.322289 C 306.408364 7.713927 305.932735 7.304665 305.291189 7.227237 L 302.4706 7.006014 L 298.455408 7.006014 C 298.300552 7.006014 298.068268 7.006014 297.902351 7.072381 C 297.128072 7.536949 296.575015 8.167434 296.575015 9.185058 C 296.575015 9.671748 296.575015 10.058888 296.652443 10.457089 C 296.652443 10.921656 296.729871 11.397285 296.807299 11.950342 C 296.807299 13.919224 296.884727 15.965534 296.884727 18.000783 L 296.884727 35.311459 C 296.962155 38.309027 297.039583 41.295533 297.128072 44.204612 C 297.128072 49.867913 297.039583 55.608642 297.039583 61.194515 C 297.039583 61.581655 297.039583 61.902428 297.128072 62.289568 C 297.2055 62.920052 297.670067 63.38462 298.300552 63.38462 C 300.180945 63.48417 302.08346 63.705393 303.963853 63.561598 C 304.682827 63.48417 305.291189 63.307192 305.932735 62.99748 C 306.56322 62.687768 306.872932 61.979856 306.872932 61.271943 C 306.795504 59.292 306.718076 57.334179 306.718076 55.376358 C 306.718076 52.788053 306.872932 50.100197 306.872932 47.50083 C 306.961421 43.40821 306.961421 39.249223 306.961421 35.156603 Z M 356.74759 63.937677 C 359.114673 63.937677 361.382205 63.705393 363.583371 62.621402 C 364.070061 62.289568 364.523568 62.057284 365.010258 61.825 C 366.580939 60.718886 368.229048 59.701262 369.401528 58.11952 C 370.518703 56.626266 371.613755 55.19938 372.321668 53.473843 C 373.825982 50.100197 374.202061 46.483206 373.494148 42.777725 C 373.339292 41.837529 372.963214 40.819904 372.63138 39.879708 C 372.399096 39.326651 372.078323 38.862083 371.846039 38.309027 C 371.304044 37.213974 370.419153 36.329084 369.478956 35.632232 C 369.102878 35.388887 368.870594 35.001747 368.461332 34.669913 C 367.985703 34.293835 367.443707 33.884573 366.968079 33.431066 C 366.027882 32.634664 365.010258 32.159036 363.915205 31.61704 C 362.798031 30.986555 361.62555 30.510926 360.519437 29.968931 C 360.209725 29.791953 359.822585 29.714525 359.490751 29.493302 C 358.329332 28.774328 356.979874 28.066416 355.807393 27.281075 C 355.022053 26.816507 354.31414 26.263451 353.750022 25.555538 C 353.196965 24.936114 352.887254 24.228202 352.809826 23.442861 C 352.732398 22.801315 352.809826 22.093403 352.964682 21.462918 C 353.196965 20.755005 353.750022 20.135582 354.391568 19.659953 C 355.022053 19.095835 355.729965 18.719756 356.504245 18.719756 C 358.152354 18.564901 359.900013 18.564901 361.548122 19.018407 C 362.488319 19.272813 363.284721 19.659953 363.915205 20.367866 C 364.368712 20.843494 365.010258 21.230634 365.563314 21.706263 C 365.71817 21.783691 365.873026 21.938547 366.027882 21.938547 C 366.813223 21.938547 367.521135 21.861119 368.085253 21.308062 C 368.616188 20.755005 369.180306 20.21301 369.655934 19.659953 C 370.419153 18.642329 371.215555 17.702132 372.000895 16.662385 C 372.553952 15.965534 372.63138 15.257621 372.24424 14.472281 C 371.768611 13.68694 371.138127 12.967966 370.518703 12.260054 C 369.655934 11.087573 368.53876 10.302233 367.366279 9.516892 C 365.950454 8.399717 364.368712 7.791355 362.720603 7.304665 C 361.382205 6.928586 360.054869 6.751608 358.705411 6.751608 C 356.349389 6.829036 354.081856 7.072381 351.947057 8.167434 C 351.471428 8.399717 351.006861 8.654124 350.531232 8.963835 C 348.872062 9.98146 347.30138 11.087573 346.051472 12.669316 C 344.934298 14.140447 343.850306 15.567333 343.131332 17.29287 C 341.638079 20.677577 341.25094 24.30563 341.958852 27.91156 C 342.191136 29.18359 342.677826 30.510926 343.20876 31.694468 C 343.69545 32.712092 344.248507 33.652289 345.111276 34.448691 C 345.896616 35.079175 346.593468 35.787088 347.378808 36.417573 C 348.319005 37.114424 349.281324 37.744909 350.22152 38.452821 C 350.686088 38.762533 351.161717 39.016939 351.714773 39.249223 C 352.511175 39.625302 353.373944 40.18942 354.236712 40.510193 C 355.641476 40.97476 356.825018 41.760101 358.074926 42.468014 C 358.937695 42.954703 359.723035 43.485638 360.519437 44.049756 C 361.470694 44.680241 362.090118 45.465581 362.488319 46.483206 C 363.030315 48.131315 362.643175 49.635629 361.470694 50.730681 C 360.585804 51.59345 359.490751 51.991651 358.329332 52.378791 C 357.389136 52.611074 356.504245 52.611074 355.564048 52.301363 C 354.546424 51.991651 353.595166 51.59345 352.577542 51.20631 C 352.179341 51.040393 351.869629 50.808109 351.471428 50.575826 C 350.298948 49.945341 349.513607 48.850288 348.573411 47.910092 C 348.241577 47.423402 347.931865 46.947773 347.555787 46.483206 C 347.30138 46.250922 347.069097 45.852721 346.593468 46.007577 C 346.1289 46.085005 345.730699 46.250922 345.34356 46.638061 C 344.790503 47.191118 344.248507 47.733114 343.618022 48.208743 C 342.345992 49.071511 341.25094 50.243991 340.056337 51.20631 C 339.680258 51.516022 339.525402 51.991651 339.680258 52.456219 C 339.912542 53.009275 340.056337 53.650821 340.388171 54.104328 C 341.405795 55.840926 342.500848 57.489035 343.994101 58.827432 C 344.480791 59.292 344.934298 59.701262 345.498415 60.077341 C 345.896616 60.409175 346.438612 60.718886 346.914241 61.039659 C 348.319005 62.057284 349.889686 62.765196 351.637345 63.229764 C 353.296516 63.639026 354.944625 64.015105 356.74759 63.937677 Z M 356.74759 63.937677 " stroke="#ffd51e" stroke-width="2.261668" stroke-opacity="1" stroke-miterlimit="4"/></g></svg>