<svg xmlns="http://www.w3.org/2000/svg" xmlns:xlink="http://www.w3.org/1999/xlink" width="500" zoomAndPan="magnify" viewBox="0 0 375 74.999997" height="100" preserveAspectRatio="xMidYMid meet" version="1.0"><path stroke-linecap="butt" transform="matrix(0.331829, 0, 0, 0.331829, 120.561912, 25.885967)" fill="none" stroke-linejoin="miter" d="M 58.802225 63.86462 C 59.590939 63.86462 60.850529 63.782217 62.027715 63.711585 C 62.969464 63.629182 63.911213 63.476148 64.794102 63.381973 C 66.512794 63.228939 67.925418 62.616802 69.114376 61.345441 C 71.621783 58.755631 72.952003 55.600772 73.281615 52.069213 C 73.434649 50.880255 73.587684 49.714841 73.658315 48.525883 C 73.834893 45.618233 73.740718 42.698811 72.798969 39.873564 C 72.186832 37.978294 71.150908 36.330233 69.820688 34.929382 C 69.573479 34.59977 69.338041 34.446735 69.031973 34.211298 C 68.549327 33.811055 68.478695 33.811055 68.961342 33.422583 C 69.031973 33.351952 69.185007 33.198918 69.338041 33.116515 C 70.609402 32.480834 71.398117 31.374279 72.010254 30.126462 C 72.645935 28.549032 73.128581 26.900972 73.199212 25.170508 C 73.281615 24.228759 73.281615 23.28701 73.352246 22.251086 C 73.434649 19.967345 72.952003 17.695375 72.257463 15.494037 C 71.621783 13.916607 70.915471 12.339178 69.820688 10.914782 C 69.114376 9.902402 68.396292 8.87825 67.207334 8.171939 C 66.265585 7.536258 65.170802 7.159558 64.005388 6.924121 C 63.440338 6.829946 62.887061 6.747543 62.427958 6.676912 C 60.850529 6.288441 59.202468 6.370844 57.625038 6.370844 C 55.976978 6.370844 54.399548 6.441475 52.751487 6.523878 C 52.268841 6.594509 51.880369 6.676912 51.480126 6.676912 C 51.021023 6.747543 50.62078 6.829946 50.232309 6.829946 C 49.043351 6.747543 47.795533 6.747543 46.606575 6.676912 C 46.147472 6.676912 45.664826 6.594509 45.205723 6.594509 C 43.851959 6.676912 42.59237 6.829946 41.415184 7.618661 C 40.861906 7.936501 40.626469 8.407376 40.626469 9.031285 C 40.708872 9.360897 40.708872 9.596334 40.626469 9.902402 C 40.473435 12.033109 40.555838 14.140273 40.708872 16.200349 C 40.861906 17.142098 40.861906 18.001444 40.779503 18.943193 C 40.708872 20.285185 40.626469 21.70958 40.708872 23.110432 C 40.779503 26.594903 40.944309 30.126462 41.038484 33.575618 C 41.109115 38.684606 41.191518 43.817138 41.191518 48.926126 C 41.191518 51.822004 41.109115 54.741426 40.944309 57.743251 C 40.861906 59.144103 41.109115 60.639129 41.191518 62.063525 C 41.26215 62.922871 41.803655 63.476148 42.757176 63.476148 C 43.851959 63.476148 44.946742 63.558551 46.065069 63.381973 C 47.548324 63.228939 49.043351 63.381973 50.538377 63.558551 C 53.128187 63.782217 55.729768 63.782217 58.802225 63.86462 Z M 53.281221 44.358644 C 53.21059 43.028423 53.21059 41.604028 53.128187 40.262035 C 53.128187 39.626355 53.128187 39.626355 53.763867 39.555724 C 55.10586 39.555724 56.518483 39.473321 57.931107 39.473321 C 58.802225 39.473321 59.66157 39.626355 60.520916 39.873564 C 61.392034 40.191404 61.945312 40.815313 62.345555 41.533397 C 63.605144 43.64056 64.005388 45.924301 63.758179 48.290446 C 63.675776 49.632438 62.887061 50.727221 61.639243 51.515936 C 59.814605 52.693122 57.860476 53.093365 55.823943 53.163997 C 55.258894 53.2464 54.705616 53.2464 54.069936 53.2464 C 53.693236 53.163997 53.610833 53.163997 53.610833 52.693122 C 53.540202 49.938506 53.387168 47.195662 53.281221 44.429275 Z M 52.669084 23.593078 C 52.598453 22.098052 52.598453 20.673656 52.598453 19.190402 C 52.598453 18.872561 52.598453 18.719527 52.975153 18.637124 C 54.069936 18.566493 55.188263 18.413459 56.353677 18.307512 C 57.377829 18.236881 58.413753 18.307512 59.437905 18.872561 C 60.061814 19.190402 60.603319 19.661276 60.932932 20.285185 C 61.874681 22.098052 62.345555 23.98155 62.345555 25.959223 C 62.345555 26.335922 62.25138 26.747937 62.027715 26.971603 C 61.392034 27.760318 60.603319 28.395998 59.590939 28.466629 C 58.413753 28.549032 57.142392 28.619664 55.976978 28.702067 C 55.188263 28.772698 54.399548 28.855101 53.610833 29.031679 C 52.822118 29.10231 52.822118 29.031679 52.751487 28.242964 C 52.751487 26.818569 52.751487 25.323542 52.669084 23.899147 Z M 80.756748 36.495039 C 80.674345 38.307906 80.603714 41.297959 80.497767 44.276241 C 80.427136 47.584134 80.344733 50.809624 80.274102 54.105746 C 80.191698 56.389487 80.191698 58.755631 80.121067 61.121776 C 80.038664 61.981122 80.497767 62.616802 80.909782 63.228939 C 80.980413 63.381973 81.215851 63.558551 81.46306 63.629182 C 82.251774 63.782217 83.016945 64.100057 83.723257 64.100057 C 85.300687 64.170688 86.878116 64.170688 88.373143 64.100057 C 89.879941 64.017654 91.374968 63.86462 92.846451 63.782217 C 94.906526 63.782217 97.119637 63.782217 99.144397 63.711585 C 100.568792 63.629182 101.910785 63.476148 103.241005 63.476148 C 105.913218 63.381973 108.526571 63.381973 111.187012 63.311342 C 111.575484 63.311342 111.975727 63.311342 112.211164 63.005274 C 112.764442 62.369593 113.152913 61.733912 113.152913 60.862795 C 113.223544 59.0617 112.917476 57.260605 112.846845 55.447738 C 112.846845 54.823829 112.846845 54.035114 112.128761 53.552468 C 112.128761 53.552468 112.128761 53.470065 112.05813 53.399434 C 111.646115 52.693122 110.869172 52.304651 110.092229 52.457685 C 109.774389 52.457685 109.456548 52.528316 109.138708 52.457685 C 108.196959 52.457685 107.172807 52.375282 106.231058 52.375282 C 104.736032 52.457685 103.241005 52.610719 101.745979 52.610719 C 99.073766 52.693122 96.401553 52.693122 93.811743 52.693122 C 93.105432 52.787297 93.105432 52.693122 93.105432 52.069213 L 93.105432 47.195662 C 93.023029 44.276241 93.023029 41.450994 93.023029 38.613975 C 93.023029 37.589823 93.105432 37.589823 94.117812 37.589823 C 95.918907 37.436788 97.731773 37.366157 99.556412 37.213123 C 101.204473 37.107176 102.781902 36.883511 104.429963 36.730477 L 106.701933 36.730477 C 107.325841 36.648074 107.737857 36.330233 107.737857 35.635694 C 107.737857 33.811055 107.737857 32.080591 107.655453 30.350127 C 107.655453 29.561413 107.561279 28.772698 107.478876 27.995755 C 107.408244 27.454249 107.408244 27.454249 106.866739 27.454249 L 105.289309 27.454249 C 103.158602 27.454249 100.957264 27.371846 98.767697 27.454249 C 97.037234 27.454249 95.294998 27.52488 93.482131 27.52488 C 92.952397 27.52488 92.846451 27.52488 92.846451 26.900972 C 92.952397 24.687862 93.023029 22.498295 93.023029 20.214554 C 93.105432 19.731907 93.105432 19.731907 93.564534 19.661276 C 95.389173 19.425839 97.272671 19.343436 99.073766 19.272805 C 101.286876 19.272805 103.394039 19.272805 105.607149 19.190402 C 107.172807 19.096227 108.83264 19.025596 110.398297 18.943193 C 111.033978 18.872561 111.646115 18.790158 112.05813 18.236881 C 112.364198 17.777778 112.611408 17.212729 112.517233 16.659451 L 112.281795 9.360897 C 112.211164 8.018904 111.493081 7.077155 110.092229 7.006524 C 109.84502 7.006524 109.538951 7.006524 109.385917 7.077155 C 108.597202 7.23019 107.890891 7.159558 107.172807 7.159558 C 105.677781 7.159558 104.182754 7.077155 102.781902 7.077155 C 101.81661 7.077155 100.957264 7.006524 100.086146 7.006524 C 96.790024 7.006524 93.4115 7.077155 90.103607 7.077155 C 89.879941 7.077155 89.644504 7.159558 89.314892 7.159558 L 82.710877 7.159558 C 81.616094 7.312593 81.062816 7.86587 81.062816 8.960653 C 80.980413 9.266722 81.062816 9.513931 81.062816 9.749368 C 81.062816 10.844151 81.133447 11.950706 81.133447 13.04549 C 80.980413 20.438219 80.909782 27.842721 80.756748 36.495039 Z M 137.544212 37.742857 L 137.614843 37.742857 C 137.614843 37.519192 137.614843 37.283754 137.697246 37.036545 C 137.850281 33.269549 138.003315 29.490781 138.073946 25.62961 C 138.179893 23.357641 138.073946 21.003269 138.073946 18.637124 L 138.073946 18.001444 C 138.073946 17.695375 138.179893 17.624744 138.485961 17.624744 L 139.74555 17.624744 C 141.864486 17.542341 144.065824 17.295132 146.25539 17.542341 L 146.738037 17.542341 C 147.373717 17.448166 147.609154 17.142098 147.679786 16.506417 L 147.679786 14.928988 C 147.762189 12.739421 148.009398 10.608714 147.915223 8.478007 C 147.915223 7.618661 147.679786 7.465627 146.891071 7.465627 C 145.490219 7.465627 144.065824 7.536258 142.6532 7.536258 C 136.755497 7.618661 130.940197 7.618661 125.042494 7.23019 C 123.135453 7.159558 121.181323 7.23019 119.297825 7.312593 C 118.662145 7.383224 118.332533 7.618661 118.261901 8.324973 C 118.026464 10.608714 117.955833 12.892455 117.955833 15.176197 C 117.955833 15.89428 118.026464 16.506417 118.108867 17.142098 C 118.179498 17.542341 118.414936 17.777778 118.744548 17.777778 L 119.45086 17.777778 C 122.123072 17.542341 124.783513 17.624744 127.385095 17.624744 C 127.855969 17.624744 127.855969 17.624744 127.855969 18.083847 C 127.938372 19.096227 127.938372 20.132151 127.938372 21.226934 C 127.938372 23.899147 127.938372 26.594903 127.785338 29.337747 C 127.549901 33.269549 127.385095 37.213123 127.385095 41.05075 C 127.302692 45.371024 127.47927 49.632438 127.47927 53.88208 L 127.47927 61.91049 C 127.47927 62.852239 128.020775 63.381973 128.950753 63.558551 C 129.362768 63.629182 129.82187 63.629182 130.304517 63.711585 C 132.341049 64.017654 134.318722 63.86462 136.272851 63.476148 C 136.755497 63.311342 137.132197 63.005274 137.132197 62.440224 C 137.2146 59.932818 137.391178 57.413639 137.391178 54.89446 C 137.461809 49.149792 137.544212 43.487526 137.544212 37.742857 Z M 164.278112 38.378537 C 164.20748 38.378537 164.125077 38.378537 164.125077 38.307906 C 164.054446 38.154872 164.054446 37.895891 164.054446 37.742857 C 164.054446 34.058264 164.054446 30.43253 163.972043 26.747937 C 163.972043 20.603025 163.877868 14.469885 163.795465 8.324973 C 163.795465 7.159558 163.018522 6.288441 161.923739 6.288441 C 160.899587 6.288441 159.957838 6.441475 158.921914 6.441475 C 158.309777 6.523878 157.674097 6.523878 157.038416 6.523878 L 155.154918 6.523878 C 154.601641 6.441475 154.142538 6.594509 153.589261 6.747543 C 153.024211 7.006524 152.718143 7.383224 152.718143 8.101307 C 152.718143 8.807619 152.718143 9.596334 152.800546 10.302646 L 153.024211 22.580698 C 153.024211 26.182888 153.106614 29.891025 153.024211 33.575618 C 153.024211 38.460941 152.95358 43.416895 152.800546 48.361077 C 152.718143 52.151616 152.871177 55.836209 153.27142 59.614977 C 153.353823 60.333061 153.506858 61.039373 153.742295 61.651509 C 153.895329 62.134156 154.142538 62.616802 154.601641 62.769836 C 155.390355 63.075905 156.17907 63.476148 157.038416 63.381973 C 157.43866 63.381973 157.827131 63.476148 158.227374 63.476148 C 159.710629 63.558551 161.205656 63.629182 162.700682 63.629182 C 163.336363 63.629182 163.795465 63.381973 164.125077 62.769836 C 164.431146 62.063525 164.843161 61.345441 165.066826 60.639129 C 165.773138 58.908665 166.491222 57.178202 167.103359 55.447738 C 167.80967 53.646643 168.680788 51.904407 169.622537 50.173944 C 170.658461 48.055008 171.670841 45.924301 172.765624 43.817138 C 172.848027 43.64056 173.024605 43.416895 173.17764 43.181457 C 173.330674 43.569929 173.483708 43.817138 173.636742 44.123206 C 174.8257 46.489351 175.991115 48.843723 177.262476 51.209867 C 178.357259 53.317031 179.145974 55.600772 180.00532 57.813882 L 182.136027 62.769836 C 182.371464 63.381973 182.924742 63.629182 183.466247 63.629182 C 183.713456 63.711585 183.948894 63.711585 184.172559 63.711585 C 187.02135 63.629182 189.846597 63.381973 192.601213 63.005274 C 193.295752 62.922871 193.542962 62.616802 193.542962 61.91049 C 193.625365 61.733912 193.542962 61.580878 193.542962 61.345441 C 193.625365 57.107571 193.378155 52.857928 193.695996 48.596514 C 193.860802 46.253913 193.860802 43.887769 193.860802 41.450994 C 193.860802 38.613975 193.778399 35.788728 193.695996 32.939937 C 193.695996 28.466629 193.778399 24.052181 193.931433 19.661276 C 194.084467 15.964911 194.084467 12.186144 194.16687 8.478007 C 194.16687 8.018904 194.013836 7.536258 193.860802 7.159558 C 193.695996 6.676912 193.378155 6.441475 192.83665 6.441475 C 191.647692 6.523878 190.399874 6.523878 189.210916 6.523878 L 187.398049 6.523878 C 186.538703 6.441475 185.749989 6.370844 184.890643 6.288441 C 184.502171 6.288441 184.172559 6.288441 183.866491 6.370844 C 183.077776 6.441475 182.371464 6.829946 182.442095 7.783467 C 182.442095 8.324973 182.442095 8.87825 182.371464 9.4433 C 182.371464 15.800105 182.289061 22.251086 182.21843 28.702067 L 182.21843 38.378537 C 181.982993 38.225503 181.818187 38.072469 181.818187 37.895891 C 181.582749 37.283754 181.359084 36.730477 181.100103 36.094796 C 180.487966 34.59977 179.934689 33.198918 179.299008 31.774523 C 178.839905 30.679739 178.274856 29.561413 177.721578 28.466629 C 177.027039 26.971603 176.320727 25.547207 175.614415 24.052181 C 175.2024 23.28701 174.8257 22.498295 174.19002 21.70958 C 173.707373 21.0739 172.541959 21.0739 171.97691 21.791983 C 171.517807 22.40412 171.117564 23.110432 170.729092 23.899147 C 169.469503 26.418325 168.292317 29.031679 167.032727 31.539085 C 166.16161 33.269549 165.525929 35.000013 164.913792 36.801108 C 164.666583 37.366157 164.513549 37.82526 164.278112 38.378537 Z M 201.171128 36.495039 C 201.100497 38.307906 201.018094 41.297959 200.923919 44.276241 C 200.853288 47.584134 200.770885 50.809624 200.700254 54.105746 C 200.617851 56.389487 200.617851 58.755631 200.535448 61.121776 C 200.464817 61.981122 200.923919 62.616802 201.324163 63.228939 C 201.406566 63.381973 201.630231 63.558551 201.889212 63.629182 C 202.677927 63.782217 203.443098 64.100057 204.14941 64.100057 C 205.726839 64.170688 207.304269 64.170688 208.799295 64.100057 C 210.294322 64.017654 211.789348 63.86462 213.272603 63.782217 C 215.332679 63.782217 217.534017 63.782217 219.570549 63.711585 C 220.994945 63.629182 222.336937 63.476148 223.667157 63.476148 C 226.327598 63.381973 228.940952 63.381973 231.613165 63.311342 C 232.001636 63.311342 232.401879 63.311342 232.625545 63.005274 C 233.190594 62.369593 233.567294 61.733912 233.567294 60.862795 C 233.649697 59.0617 233.343628 57.260605 233.261225 55.447738 C 233.261225 54.823829 233.261225 54.035114 232.554914 53.552468 C 232.554914 53.552468 232.554914 53.470065 232.47251 53.399434 C 232.072267 52.693122 231.283552 52.304651 230.518381 52.457685 C 230.188769 52.457685 229.882701 52.528316 229.553089 52.457685 C 228.623111 52.457685 227.598959 52.375282 226.65721 52.375282 C 225.162184 52.457685 223.667157 52.610719 222.160359 52.610719 C 219.499918 52.693122 216.827705 52.693122 214.237896 52.693122 C 213.519812 52.787297 213.519812 52.693122 213.519812 52.069213 L 213.519812 47.195662 C 213.449181 44.276241 213.449181 41.450994 213.449181 38.613975 C 213.449181 37.589823 213.519812 37.589823 214.543964 37.589823 C 216.345059 37.436788 218.146154 37.366157 219.970793 37.213123 C 221.630625 37.107176 223.196283 36.883511 224.856116 36.730477 L 227.116313 36.730477 C 227.751994 36.648074 228.152237 36.330233 228.152237 35.635694 C 228.152237 33.811055 228.152237 32.080591 228.081606 30.350127 C 228.081606 29.561413 227.987431 28.772698 227.905028 27.995755 C 227.834397 27.454249 227.834397 27.454249 227.292891 27.454249 L 225.715461 27.454249 C 223.584754 27.454249 221.383416 27.371846 219.19385 27.454249 C 217.463386 27.454249 215.709378 27.52488 213.908283 27.52488 C 213.366778 27.52488 213.272603 27.52488 213.272603 26.900972 C 213.366778 24.687862 213.449181 22.498295 213.449181 20.214554 C 213.519812 19.731907 213.519812 19.731907 213.978915 19.661276 C 215.803553 19.425839 217.687051 19.343436 219.499918 19.272805 C 221.701256 19.272805 223.820192 19.272805 226.02153 19.190402 C 227.598959 19.096227 229.24702 19.025596 230.82445 18.943193 C 231.46013 18.872561 232.072267 18.790158 232.47251 18.236881 C 232.790351 17.777778 233.03756 17.212729 232.943385 16.659451 L 232.707948 9.360897 C 232.625545 8.018904 231.919233 7.077155 230.518381 7.006524 C 230.271172 7.006524 229.965104 7.006524 229.81207 7.077155 C 229.023355 7.23019 228.305271 7.159558 227.598959 7.159558 C 226.103933 7.159558 224.608906 7.077155 223.196283 7.077155 C 222.242762 7.077155 221.383416 7.006524 220.512298 7.006524 C 217.204405 7.006524 213.82588 7.077155 210.529759 7.077155 C 210.294322 7.077155 210.070656 7.159558 209.741044 7.159558 L 203.137029 7.159558 C 202.042246 7.312593 201.477197 7.86587 201.477197 8.960653 C 201.406566 9.266722 201.477197 9.513931 201.477197 9.749368 C 201.477197 10.844151 201.5596 11.950706 201.5596 13.04549 C 201.406566 20.438219 201.324163 27.842721 201.171128 36.495039 Z M 240.665727 36.495039 C 240.583324 38.307906 240.500921 41.297959 240.406746 44.276241 C 240.336115 47.584134 240.253712 50.809624 240.18308 54.105746 C 240.100677 56.389487 240.100677 58.755631 240.030046 61.121776 C 239.947643 61.981122 240.406746 62.616802 240.818761 63.228939 C 240.889392 63.381973 241.124829 63.558551 241.372038 63.629182 C 242.160753 63.782217 242.925924 64.100057 243.632236 64.100057 C 245.209666 64.170688 246.787095 64.170688 248.282122 64.100057 C 249.777148 64.017654 251.283947 63.86462 252.755429 63.782217 C 254.815505 63.782217 257.016844 63.782217 259.053376 63.711585 C 260.477771 63.629182 261.819763 63.476148 263.149984 63.476148 C 265.822197 63.381973 268.423778 63.381973 271.095991 63.311342 C 271.484462 63.311342 271.884706 63.311342 272.120143 63.005274 C 272.673421 62.369593 273.061892 61.733912 273.061892 60.862795 C 273.132523 59.0617 272.826455 57.260605 272.755824 55.447738 C 272.755824 54.823829 272.755824 54.035114 272.03774 53.552468 C 272.03774 53.552468 272.03774 53.470065 271.967109 53.399434 C 271.555094 52.693122 270.778151 52.304651 270.001208 52.457685 C 269.683368 52.457685 269.365527 52.528316 269.047687 52.457685 C 268.105938 52.457685 267.081786 52.375282 266.140037 52.375282 C 264.64501 52.457685 263.149984 52.610719 261.654957 52.610719 C 258.982745 52.693122 256.310532 52.693122 253.720722 52.693122 C 253.002638 52.787297 253.002638 52.693122 253.002638 52.069213 L 253.002638 47.195662 C 252.932007 44.276241 252.932007 41.450994 252.932007 38.613975 C 252.932007 37.589823 253.002638 37.589823 254.026791 37.589823 C 255.827885 37.436788 257.640752 37.366157 259.465391 37.213123 C 261.113452 37.107176 262.690881 36.883511 264.338942 36.730477 L 266.59914 36.730477 C 267.23482 36.648074 267.646835 36.330233 267.646835 35.635694 C 267.646835 33.811055 267.646835 32.080591 267.564432 30.350127 C 267.564432 29.561413 267.470257 28.772698 267.387854 27.995755 C 267.317223 27.454249 267.317223 27.454249 266.775718 27.454249 L 265.198288 27.454249 C 263.067581 27.454249 260.866243 27.371846 258.676676 27.454249 C 256.946212 27.454249 255.192205 27.52488 253.39111 27.52488 C 252.849604 27.52488 252.755429 27.52488 252.755429 26.900972 C 252.849604 24.687862 252.932007 22.498295 252.932007 20.214554 C 253.002638 19.731907 253.002638 19.731907 253.473513 19.661276 C 255.298152 19.425839 257.18165 19.343436 258.982745 19.272805 C 261.184083 19.272805 263.303018 19.272805 265.516128 19.190402 C 267.081786 19.096227 268.741619 19.025596 270.307276 18.943193 C 270.942957 18.872561 271.555094 18.790158 271.967109 18.236881 C 272.273177 17.777778 272.520386 17.212729 272.426211 16.659451 L 272.190774 9.360897 C 272.120143 8.018904 271.402059 7.077155 270.001208 7.006524 C 269.753999 7.006524 269.44793 7.006524 269.294896 7.077155 C 268.506181 7.23019 267.79987 7.159558 267.081786 7.159558 C 265.586759 7.159558 264.091733 7.077155 262.690881 7.077155 C 261.725589 7.077155 260.866243 7.006524 259.995125 7.006524 C 256.699003 7.006524 253.320479 7.077155 250.012585 7.077155 C 249.777148 7.077155 249.553483 7.159558 249.223871 7.159558 L 242.619856 7.159558 C 241.525073 7.312593 240.971795 7.86587 240.971795 8.960653 C 240.889392 9.266722 240.971795 9.513931 240.971795 9.749368 C 240.971795 10.844151 241.042426 11.950706 241.042426 13.04549 C 240.889392 20.438219 240.818761 27.842721 240.665727 36.495039 Z M 289.825024 34.59977 C 289.895655 34.59977 289.895655 34.517367 289.978058 34.517367 C 289.978058 34.59977 290.060461 34.59977 290.060461 34.670401 C 290.68437 36.330233 291.779153 37.742857 292.650271 39.249655 C 293.815685 41.380362 295.087047 43.416895 296.334864 45.547602 C 297.300157 47.042628 298.159503 48.44348 299.101252 49.867875 C 300.113632 51.433533 301.208415 52.857928 301.99713 54.435358 C 302.479776 55.447738 302.962423 56.389487 303.421525 57.331236 C 304.433905 58.991069 305.552232 60.639129 306.576384 62.369593 C 306.80005 62.687433 307.129662 63.005274 307.353327 63.311342 C 307.588764 63.476148 307.918377 63.558551 308.071411 63.558551 C 309.083791 63.558551 310.107943 63.476148 311.143867 63.476148 C 311.909038 63.381973 312.791928 63.228939 313.651274 63.311342 C 314.522391 63.311342 315.134528 63.005274 315.770209 62.28719 C 315.993874 61.981122 316.170452 61.733912 316.170452 61.27481 C 316.099821 59.768011 316.099821 58.202354 316.099821 56.695555 C 315.923243 53.470065 315.770209 50.33875 315.770209 47.113259 C 315.687806 41.992499 315.770209 36.801108 315.687806 31.69212 C 315.687806 27.20704 315.617175 22.733732 315.46414 18.307512 C 315.381737 15.011391 314.981494 11.703497 315.063897 8.407376 C 315.063897 8.018904 314.82846 7.712836 314.522391 7.536258 C 314.345813 7.465627 314.192779 7.383224 313.969114 7.383224 C 313.404064 7.159558 312.697753 7.23019 312.085616 7.23019 C 310.743624 7.159558 309.319228 7.077155 307.989008 7.006524 C 307.282696 7.006524 306.647015 7.077155 306.011335 7.312593 C 305.481601 7.536258 305.151989 7.783467 305.151989 8.407376 C 305.151989 10.691117 305.151989 12.974858 305.22262 15.176197 C 305.305023 17.777778 305.634635 20.367588 305.634635 22.957398 C 305.705266 28.395998 305.705266 33.811055 305.705266 39.167252 C 305.705266 39.320286 305.634635 39.473321 305.634635 39.626355 C 305.481601 39.555724 305.399198 39.473321 305.399198 39.40269 C 304.280871 37.436788 303.115457 35.459116 302.079533 33.504986 C 301.384993 32.3278 300.831715 31.138842 300.196035 29.973428 C 298.230134 26.335922 296.252461 22.733732 294.533769 19.025596 C 293.438986 16.753626 292.167625 14.469885 291.225876 12.033109 C 290.766773 10.761748 290.060461 9.596334 289.495412 8.324973 C 289.271747 7.712836 288.7891 7.312593 288.15342 7.23019 L 285.328173 7.006524 L 281.313968 7.006524 C 281.160933 7.006524 280.937268 7.006524 280.76069 7.077155 C 279.995519 7.536258 279.43047 8.171939 279.43047 9.184319 C 279.43047 9.666965 279.43047 10.055437 279.512873 10.45568 C 279.512873 10.914782 279.583504 11.397429 279.665907 11.950706 C 279.665907 13.916607 279.736538 15.964911 279.736538 18.001444 L 279.736538 35.306081 C 279.818941 38.307906 279.901344 41.297959 279.995519 44.193837 C 279.995519 49.867875 279.901344 55.600772 279.901344 61.192407 C 279.901344 61.580878 279.901344 61.91049 279.995519 62.28719 C 280.06615 62.922871 280.525253 63.381973 281.160933 63.381973 C 283.044431 63.476148 284.951473 63.711585 286.823199 63.558551 C 287.541283 63.476148 288.15342 63.311342 288.7891 63.005274 C 289.424781 62.687433 289.730849 61.981122 289.730849 61.27481 C 289.648446 59.297137 289.577815 57.331236 289.577815 55.377107 C 289.577815 52.787297 289.730849 50.091541 289.730849 47.501731 C 289.825024 43.416895 289.825024 39.249655 289.825024 35.153047 Z M 339.60823 63.935251 C 341.974375 63.935251 344.234572 63.711585 346.447682 62.616802 C 346.930329 62.28719 347.389431 62.063525 347.872078 61.828087 C 349.437735 60.70976 351.097568 59.69738 352.262982 58.119951 C 353.381309 56.624924 354.476092 55.200529 355.182404 53.470065 C 356.677431 50.091541 357.065902 46.489351 356.35959 42.781214 C 356.206556 41.839465 355.818085 40.815313 355.488473 39.873564 C 355.264807 39.320286 354.935195 38.861184 354.699758 38.307906 C 354.170024 37.213123 353.287134 36.330233 352.345385 35.635694 C 351.956914 35.388484 351.721477 35.000013 351.321233 34.670401 C 350.838587 34.293701 350.308853 33.881686 349.826207 33.422583 C 348.884458 32.633869 347.872078 32.162994 346.777294 31.621488 C 345.658967 30.985808 344.481781 30.503162 343.375226 29.973428 C 343.069158 29.79685 342.680686 29.714447 342.351074 29.490781 C 341.18566 28.772698 339.843667 28.066386 338.666481 27.277671 C 337.877766 26.818569 337.171455 26.265291 336.618177 25.547207 C 336.053128 24.935071 335.747059 24.228759 335.676428 23.440044 C 335.594025 22.804364 335.676428 22.098052 335.829462 21.462371 C 336.053128 20.756059 336.618177 20.132151 337.242086 19.661276 C 337.877766 19.096227 338.59585 18.719527 339.361021 18.719527 C 341.009082 18.566493 342.763089 18.566493 344.41115 19.025596 C 345.352899 19.272805 346.141614 19.661276 346.777294 20.367588 C 347.236397 20.850234 347.872078 21.226934 348.425355 21.70958 C 348.578389 21.791983 348.731424 21.945018 348.884458 21.945018 C 349.673173 21.945018 350.379484 21.862615 350.944534 21.309337 C 351.474267 20.756059 352.039317 20.214554 352.510191 19.661276 C 353.287134 18.637124 354.075849 17.695375 354.852792 16.659451 C 355.417841 15.964911 355.488473 15.2586 355.111773 14.469885 C 354.629127 13.68117 353.993446 12.974858 353.381309 12.268547 C 352.510191 11.09136 351.403636 10.302646 350.22645 9.513931 C 348.813827 8.407376 347.236397 7.783467 345.576564 7.312593 C 344.234572 6.924121 342.916123 6.747543 341.562359 6.747543 C 339.207987 6.829946 336.936017 7.077155 334.80531 8.171939 C 334.322664 8.407376 333.863561 8.654585 333.392687 8.960653 C 331.732854 9.973034 330.155425 11.09136 328.907607 12.66879 C 327.801052 14.140273 326.706269 15.564668 325.988185 17.295132 C 324.493159 20.673656 324.116459 24.29939 324.822771 27.913352 C 325.058208 29.184713 325.529083 30.503162 326.070588 31.69212 C 326.553235 32.716272 327.106512 33.658021 327.965858 34.446735 C 328.754573 35.082416 329.449113 35.788728 330.237828 36.424408 C 331.179577 37.107176 332.133098 37.742857 333.074847 38.460941 C 333.545721 38.767009 334.016596 39.014218 334.581645 39.249655 C 335.37036 39.626355 336.229706 40.191404 337.089052 40.509245 C 338.489903 40.968347 339.690633 41.757062 340.938451 42.475146 C 341.797797 42.94602 342.586511 43.487526 343.375226 44.040803 C 344.328747 44.676484 344.952656 45.465199 345.352899 46.489351 C 345.894405 48.137411 345.505933 49.632438 344.328747 50.727221 C 343.445857 51.598339 342.351074 51.998582 341.18566 52.375282 C 340.243911 52.610719 339.361021 52.610719 338.419272 52.304651 C 337.39512 51.998582 336.465143 51.598339 335.440991 51.209867 C 335.040748 51.03329 334.734679 50.809624 334.322664 50.574187 C 333.15725 49.938506 332.368535 48.843723 331.426786 47.901974 C 331.097174 47.4311 330.791105 46.948453 330.414406 46.489351 C 330.155425 46.253913 329.931759 45.85367 329.449113 46.006704 C 328.99001 46.077335 328.589767 46.253913 328.201295 46.642385 C 327.648018 47.195662 327.106512 47.737168 326.470832 48.208043 C 325.211242 49.07916 324.116459 50.244575 322.915729 51.209867 C 322.53903 51.515936 322.385995 51.998582 322.53903 52.457685 C 322.762695 53.010962 322.915729 53.646643 323.245341 54.105746 C 324.269493 55.836209 325.364277 57.48427 326.859303 58.838034 C 327.34195 59.297137 327.801052 59.69738 328.35433 60.085852 C 328.754573 60.403692 329.296079 60.70976 329.778725 61.039373 C 331.179577 62.063525 332.757006 62.769836 334.499242 63.228939 C 336.147303 63.629182 337.807135 64.017654 339.60823 63.935251 Z M 339.60823 63.935251 " stroke="#ffd51e" stroke-width="2.261668" stroke-opacity="1" stroke-miterlimit="4"/></svg>